<?xml version="1.0" encoding="utf-8" standalone="no"?>
<!DOCTYPE svg PUBLIC "-//W3C//DTD SVG 1.1//EN"
  "http://www.w3.org/Graphics/SVG/1.1/DTD/svg11.dtd">
<!-- Created with matplotlib (http://matplotlib.org/) -->
<svg height="279.993995pt" version="1.1" viewBox="0 0 404.916729 279.993995" width="404.916729pt" xmlns="http://www.w3.org/2000/svg" xmlns:xlink="http://www.w3.org/1999/xlink">
 <defs>
  <style type="text/css">
*{stroke-linecap:butt;stroke-linejoin:round;}
  </style>
 </defs>
 <g id="figure_1">
  <g id="patch_1">
   <path d="M 0 279.993995 
L 404.916729 279.993995 
L 404.916729 0 
L 0 0 
z
" style="fill:#ffffff;"/>
  </g>
  <g id="axes_1">
   <g id="patch_2">
    <path d="M 59.416729 228.14 
L 394.216729 228.14 
L 394.216729 10.7 
L 59.416729 10.7 
z
" style="fill:#ffffff;"/>
   </g>
   <g id="matplotlib.axis_1">
    <g id="xtick_1">
     <g id="line2d_1">
      <defs>
       <path d="M 0 0 
L 0 3.5 
" id="mf3989d6213" style="stroke:#000000;stroke-width:0.8;"/>
      </defs>
      <g>
       <use style="stroke:#000000;stroke-width:0.8;" x="72.377534" xlink:href="#mf3989d6213" y="228.14"/>
      </g>
     </g>
     <g id="text_1">
      <!-- $-1.0$ -->
      <defs>
       <path d="M 65.90625 23 
C 67.59375 23 69.40625 23 69.40625 25 
C 69.40625 27 67.59375 27 65.90625 27 
L 11.796875 27 
C 10.09375 27 8.296875 27 8.296875 25 
C 8.296875 23 10.09375 23 11.796875 23 
z
" id="CMSY10-0"/>
       <path d="M 26.59375 63.796875 
C 26.59375 65.890625 26.5 66 25.09375 66 
C 21.203125 61.359375 15.296875 59.890625 9.703125 59.6875 
C 9.40625 59.6875 8.90625 59.6875 8.796875 59.5 
C 8.703125 59.296875 8.703125 59.09375 8.703125 57 
C 11.796875 57 17 57.59375 21 59.984375 
L 21 7.296875 
C 21 3.796875 20.796875 2.59375 12.203125 2.59375 
L 9.203125 2.59375 
L 9.203125 0 
C 14 0.09375 19 0.1875 23.796875 0.1875 
C 28.59375 0.1875 33.59375 0.09375 38.40625 0 
L 38.40625 2.59375 
L 35.40625 2.59375 
C 26.796875 2.59375 26.59375 3.6875 26.59375 7.296875 
z
" id="CMR17-49"/>
       <path d="M 18.40625 4.796875 
C 18.40625 7.6875 16 9.6875 13.59375 9.6875 
C 10.703125 9.6875 8.703125 7.296875 8.703125 4.890625 
C 8.703125 2 11.09375 0 13.5 0 
C 16.40625 0 18.40625 2.390625 18.40625 4.796875 
z
" id="CMMI12-58"/>
       <path d="M 42 31.84375 
C 42 37.96875 41.90625 48.421875 37.703125 56.453125 
C 34 63.484375 28.09375 66 22.90625 66 
C 18.09375 66 12 63.78125 8.203125 56.5625 
C 4.203125 49.015625 3.796875 39.671875 3.796875 31.84375 
C 3.796875 26.109375 3.90625 17.375 7 9.734375 
C 11.296875 -0.609375 19 -2 22.90625 -2 
C 27.5 -2 34.5 -0.109375 38.59375 9.4375 
C 41.59375 16.375 42 24.5 42 31.84375 
z
M 22.90625 -0.40625 
C 16.5 -0.40625 12.703125 5.125 11.296875 12.75 
C 10.203125 18.6875 10.203125 27.328125 10.203125 32.953125 
C 10.203125 40.6875 10.203125 47.109375 11.5 53.234375 
C 13.40625 61.78125 19 64.390625 22.90625 64.390625 
C 27 64.390625 32.296875 61.671875 34.203125 53.4375 
C 35.5 47.71875 35.59375 40.984375 35.59375 32.953125 
C 35.59375 26.421875 35.59375 18.375 34.40625 12.453125 
C 32.296875 1.5 26.40625 -0.40625 22.90625 -0.40625 
z
" id="CMR17-48"/>
      </defs>
      <g transform="translate(54.740631 247.5933)scale(0.18 -0.18)">
       <use transform="scale(0.996264)" xlink:href="#CMSY10-0"/>
       <use transform="translate(77.487468 0)scale(0.996264)" xlink:href="#CMR17-49"/>
       <use transform="translate(123.177945 0)scale(0.996264)" xlink:href="#CMMI12-58"/>
       <use transform="translate(150.275122 0)scale(0.996264)" xlink:href="#CMR17-48"/>
      </g>
     </g>
    </g>
    <g id="xtick_2">
     <g id="line2d_2">
      <g>
       <use style="stroke:#000000;stroke-width:0.8;" x="149.044326" xlink:href="#mf3989d6213" y="228.14"/>
      </g>
     </g>
     <g id="text_2">
      <!-- $-0.5$ -->
      <defs>
       <path d="M 11.40625 58.59375 
C 12.40625 58.1875 16.5 56.890625 20.703125 56.890625 
C 30 56.890625 35.09375 61.890625 38 64.6875 
C 38 65.484375 38 66 37.40625 66 
C 37.296875 66 37.09375 66 36.296875 65.59375 
C 32.796875 64.09375 28.703125 63 23.703125 63 
C 20.703125 63 16.203125 63.359375 11.296875 65.484375 
C 10.203125 66 10 66 9.90625 66 
C 9.40625 66 9.296875 65.890625 9.296875 63.90625 
L 9.296875 34.859375 
C 9.296875 33.015625 9.296875 32.5 10.296875 32.5 
C 10.796875 32.5 11 32.703125 11.5 33.421875 
C 14.703125 38.046875 19.09375 40 24.09375 40 
C 27.59375 40 35.09375 37.734375 35.09375 20.203125 
C 35.09375 16.984375 35.09375 11.1875 32.09375 6.59375 
C 29.59375 2.484375 25.703125 0.390625 21.40625 0.390625 
C 14.796875 0.390625 8.09375 4.984375 6.296875 12.6875 
C 6.703125 12.59375 7.5 12.390625 7.90625 12.390625 
C 9.203125 12.390625 11.703125 13.09375 11.703125 16.1875 
C 11.703125 18.890625 9.796875 20 7.90625 20 
C 5.59375 20 4.09375 18.59375 4.09375 15.796875 
C 4.09375 7.09375 11 -2 21.59375 -2 
C 31.90625 -2 41.703125 6.890625 41.703125 19.796875 
C 41.703125 32.09375 33.90625 41.59375 24.203125 41.59375 
C 19.09375 41.59375 14.796875 39.6875 11.40625 36 
z
" id="CMR17-53"/>
      </defs>
      <g transform="translate(131.407423 247.5933)scale(0.18 -0.18)">
       <use transform="scale(0.996264)" xlink:href="#CMSY10-0"/>
       <use transform="translate(77.487468 0)scale(0.996264)" xlink:href="#CMR17-48"/>
       <use transform="translate(123.177945 0)scale(0.996264)" xlink:href="#CMMI12-58"/>
       <use transform="translate(150.275122 0)scale(0.996264)" xlink:href="#CMR17-53"/>
      </g>
     </g>
    </g>
    <g id="xtick_3">
     <g id="line2d_3">
      <g>
       <use style="stroke:#000000;stroke-width:0.8;" x="225.711118" xlink:href="#mf3989d6213" y="228.14"/>
      </g>
     </g>
     <g id="text_3">
      <!-- $0.0$ -->
      <g transform="translate(215.048086 247.5933)scale(0.18 -0.18)">
       <use transform="scale(0.996264)" xlink:href="#CMR17-48"/>
       <use transform="translate(45.690477 0)scale(0.996264)" xlink:href="#CMMI12-58"/>
       <use transform="translate(72.787654 0)scale(0.996264)" xlink:href="#CMR17-48"/>
      </g>
     </g>
    </g>
    <g id="xtick_4">
     <g id="line2d_4">
      <g>
       <use style="stroke:#000000;stroke-width:0.8;" x="302.377909" xlink:href="#mf3989d6213" y="228.14"/>
      </g>
     </g>
     <g id="text_4">
      <!-- $0.5$ -->
      <g transform="translate(291.714877 247.5933)scale(0.18 -0.18)">
       <use transform="scale(0.996264)" xlink:href="#CMR17-48"/>
       <use transform="translate(45.690477 0)scale(0.996264)" xlink:href="#CMMI12-58"/>
       <use transform="translate(72.787654 0)scale(0.996264)" xlink:href="#CMR17-53"/>
      </g>
     </g>
    </g>
    <g id="xtick_5">
     <g id="line2d_5">
      <g>
       <use style="stroke:#000000;stroke-width:0.8;" x="379.044701" xlink:href="#mf3989d6213" y="228.14"/>
      </g>
     </g>
     <g id="text_5">
      <!-- $1.0$ -->
      <g transform="translate(368.381669 247.5933)scale(0.18 -0.18)">
       <use transform="scale(0.996264)" xlink:href="#CMR17-49"/>
       <use transform="translate(45.690477 0)scale(0.996264)" xlink:href="#CMMI12-58"/>
       <use transform="translate(72.787654 0)scale(0.996264)" xlink:href="#CMR17-48"/>
      </g>
     </g>
    </g>
    <g id="text_6">
     <!-- $y$ -->
     <defs>
      <path d="M 26.296875 -10.515625 
C 23.59375 -14.390625 19.703125 -18 14.796875 -18 
C 13.59375 -18 8.796875 -17.796875 7.296875 -12.90625 
C 7.59375 -13.015625 8.09375 -13.015625 8.296875 -13.015625 
C 11.296875 -13.015625 13.296875 -10.40625 13.296875 -8.109375 
C 13.296875 -5.8125 11.40625 -5 9.90625 -5 
C 8.296875 -5 4.796875 -6.203125 4.796875 -11.109375 
C 4.796875 -16.40625 9.09375 -20 14.796875 -20 
C 24.796875 -20 34.90625 -10.515625 37.703125 -0.109375 
L 47.5 38.796875 
C 47.59375 39.296875 47.796875 39.890625 47.796875 40.484375 
C 47.796875 41.984375 46.59375 43 45.09375 43 
C 44.203125 43 42.09375 42.59375 41.296875 39.59375 
L 33.90625 10.265625 
C 33.40625 8.46875 33.40625 8.28125 32.59375 7.171875 
C 30.59375 4.390625 27.296875 1 22.5 1 
C 16.90625 1 16.40625 6.484375 16.40625 9.171875 
C 16.40625 14.859375 19.09375 22.546875 21.796875 29.71875 
C 22.90625 32.609375 23.5 34.015625 23.5 36.015625 
C 23.5 40.203125 20.5 44 15.59375 44 
C 6.40625 44 2.703125 29.53125 2.703125 28.71875 
C 2.703125 28.328125 3.09375 27.828125 3.796875 27.828125 
C 4.703125 27.828125 4.796875 28.234375 5.203125 29.625 
C 7.59375 38 11.40625 41.984375 15.296875 41.984375 
C 16.203125 41.984375 17.90625 41.984375 17.90625 38.703125 
C 17.90625 36.109375 16.796875 33.21875 15.296875 29.421875 
C 10.40625 16.359375 10.40625 13.0625 10.40625 10.671875 
C 10.40625 1.1875 17.203125 -1 22.203125 -1 
C 25.09375 -1 28.703125 -0.109375 32.203125 3.59375 
L 32.296875 3.484375 
C 30.796875 -2.203125 29.796875 -5.609375 26.296875 -10.515625 
z
" id="CMMI12-121"/>
     </defs>
     <g transform="translate(222.060312 268.918361)scale(0.2 -0.2)">
      <use transform="scale(0.996264)" xlink:href="#CMMI12-121"/>
     </g>
    </g>
   </g>
   <g id="matplotlib.axis_2">
    <g id="ytick_1">
     <g id="line2d_6">
      <defs>
       <path d="M 0 0 
L -3.5 0 
" id="mb88a5a29fa" style="stroke:#000000;stroke-width:0.8;"/>
      </defs>
      <g>
       <use style="stroke:#000000;stroke-width:0.8;" x="59.416729" xlink:href="#mb88a5a29fa" y="220.249211"/>
      </g>
     </g>
     <g id="text_7">
      <!-- $0.2$ -->
      <defs>
       <path d="M 41.703125 15.46875 
L 39.90625 15.46875 
C 38.90625 8.390625 38.09375 7.1875 37.703125 6.59375 
C 37.203125 5.796875 30 5.796875 28.59375 5.796875 
L 9.40625 5.796875 
C 13 9.6875 20 16.765625 28.5 24.9375 
C 34.59375 30.71875 41.703125 37.5 41.703125 47.390625 
C 41.703125 59.1875 32.296875 66 21.796875 66 
C 10.796875 66 4.09375 56.296875 4.09375 47.296875 
C 4.09375 43.390625 7 42.890625 8.203125 42.890625 
C 9.203125 42.890625 12.203125 43.484375 12.203125 46.984375 
C 12.203125 50.09375 9.59375 51 8.203125 51 
C 7.59375 51 7 50.890625 6.59375 50.6875 
C 8.5 59.1875 14.296875 63.390625 20.40625 63.390625 
C 29.09375 63.390625 34.796875 56.5 34.796875 47.390625 
C 34.796875 38.703125 29.703125 31.21875 24 24.734375 
L 4.09375 2.296875 
L 4.09375 0 
L 39.296875 0 
z
" id="CMR17-50"/>
      </defs>
      <g transform="translate(31.090666 226.475861)scale(0.18 -0.18)">
       <use transform="scale(0.996264)" xlink:href="#CMR17-48"/>
       <use transform="translate(45.690477 0)scale(0.996264)" xlink:href="#CMMI12-58"/>
       <use transform="translate(72.787654 0)scale(0.996264)" xlink:href="#CMR17-50"/>
      </g>
     </g>
    </g>
    <g id="ytick_2">
     <g id="line2d_7">
      <g>
       <use style="stroke:#000000;stroke-width:0.8;" x="59.416729" xlink:href="#mb88a5a29fa" y="169.867542"/>
      </g>
     </g>
     <g id="text_8">
      <!-- $0.4$ -->
      <defs>
       <path d="M 33.59375 64.796875 
C 33.59375 66.890625 33.5 67 31.703125 67 
L 2 19.59375 
L 2 17 
L 27.796875 17 
L 27.796875 7.1875 
C 27.796875 3.59375 27.59375 2.59375 20.59375 2.59375 
L 18.703125 2.59375 
L 18.703125 0 
C 21.90625 0.1875 27.296875 0.1875 30.703125 0.1875 
C 34.09375 0.1875 39.5 0.1875 42.703125 0 
L 42.703125 2.59375 
L 40.796875 2.59375 
C 33.796875 2.59375 33.59375 3.59375 33.59375 7.1875 
L 33.59375 17 
L 43.796875 17 
L 43.796875 19.59375 
L 33.59375 19.59375 
z
M 28.09375 58.171875 
L 28.09375 19.59375 
L 4 19.59375 
z
" id="CMR17-52"/>
      </defs>
      <g transform="translate(31.090666 176.094192)scale(0.18 -0.18)">
       <use transform="scale(0.996264)" xlink:href="#CMR17-48"/>
       <use transform="translate(45.690477 0)scale(0.996264)" xlink:href="#CMMI12-58"/>
       <use transform="translate(72.787654 0)scale(0.996264)" xlink:href="#CMR17-52"/>
      </g>
     </g>
    </g>
    <g id="ytick_3">
     <g id="line2d_8">
      <g>
       <use style="stroke:#000000;stroke-width:0.8;" x="59.416729" xlink:href="#mb88a5a29fa" y="119.485874"/>
      </g>
     </g>
     <g id="text_9">
      <!-- $0.6$ -->
      <defs>
       <path d="M 10.59375 34.34375 
C 10.59375 58 21.796875 63.6875 28.296875 63.6875 
C 30.40625 63.6875 35.5 63.265625 37.5 59.09375 
C 35.90625 59.09375 32.90625 59.09375 32.90625 55.59375 
C 32.90625 52.890625 35.09375 52 36.5 52 
C 37.40625 52 40.09375 52.390625 40.09375 55.796875 
C 40.09375 62.296875 35.09375 66 28.203125 66 
C 16.296875 66 3.796875 53.296875 3.796875 31.421875 
C 3.796875 4.015625 15.09375 -2 23.09375 -2 
C 32.796875 -2 42 6.734375 42 20.234375 
C 42 32.828125 33.90625 42 23.703125 42 
C 17.59375 42 13.09375 37.96875 10.59375 30.921875 
z
M 23.09375 0.390625 
C 10.796875 0.390625 10.796875 18.9375 10.796875 22.65625 
C 10.796875 29.90625 14.203125 40.390625 23.5 40.390625 
C 25.203125 40.390625 30.09375 40.390625 33.40625 33.4375 
C 35.203125 29.515625 35.203125 25.375 35.203125 20.34375 
C 35.203125 14.90625 35.203125 10.875 33.09375 6.84375 
C 30.90625 2.703125 27.703125 0.390625 23.09375 0.390625 
z
" id="CMR17-54"/>
      </defs>
      <g transform="translate(31.090666 125.712524)scale(0.18 -0.18)">
       <use transform="scale(0.996264)" xlink:href="#CMR17-48"/>
       <use transform="translate(45.690477 0)scale(0.996264)" xlink:href="#CMMI12-58"/>
       <use transform="translate(72.787654 0)scale(0.996264)" xlink:href="#CMR17-54"/>
      </g>
     </g>
    </g>
    <g id="ytick_4">
     <g id="line2d_9">
      <g>
       <use style="stroke:#000000;stroke-width:0.8;" x="59.416729" xlink:href="#mb88a5a29fa" y="69.104206"/>
      </g>
     </g>
     <g id="text_10">
      <!-- $0.8$ -->
      <defs>
       <path d="M 27.203125 35.765625 
C 33.5 38.96875 39.90625 43.796875 39.90625 51.53125 
C 39.90625 60.6875 31.09375 66 23 66 
C 13.90625 66 5.90625 59.375 5.90625 50.234375 
C 5.90625 47.71875 6.5 43.390625 10.40625 39.578125 
C 11.40625 38.578125 15.59375 35.5625 18.296875 33.65625 
C 13.796875 31.34375 3.296875 25.8125 3.296875 14.765625 
C 3.296875 4.40625 13.09375 -2 22.796875 -2 
C 33.5 -2 42.5 5.71875 42.5 15.96875 
C 42.5 25.109375 36.40625 29.328125 32.40625 32.046875 
z
M 14.09375 44.609375 
C 13.296875 45.109375 9.296875 48.21875 9.296875 52.9375 
C 9.296875 59.078125 15.59375 63.6875 22.796875 63.6875 
C 30.703125 63.6875 36.5 58.0625 36.5 51.53125 
C 36.5 42.1875 26.09375 36.859375 25.59375 36.859375 
C 25.5 36.859375 25.40625 36.859375 24.59375 37.46875 
z
M 32.5 24 
C 34 22.90625 38.796875 19.578125 38.796875 13.453125 
C 38.796875 6.015625 31.40625 0.390625 23 0.390625 
C 13.90625 0.390625 7 6.921875 7 14.859375 
C 7 22.796875 13.09375 29.4375 20 32.546875 
z
" id="CMR17-56"/>
      </defs>
      <g transform="translate(31.090666 75.330856)scale(0.18 -0.18)">
       <use transform="scale(0.996264)" xlink:href="#CMR17-48"/>
       <use transform="translate(45.690477 0)scale(0.996264)" xlink:href="#CMMI12-58"/>
       <use transform="translate(72.787654 0)scale(0.996264)" xlink:href="#CMR17-56"/>
      </g>
     </g>
    </g>
    <g id="ytick_5">
     <g id="line2d_10">
      <g>
       <use style="stroke:#000000;stroke-width:0.8;" x="59.416729" xlink:href="#mb88a5a29fa" y="18.722538"/>
      </g>
     </g>
     <g id="text_11">
      <!-- $1.0$ -->
      <g transform="translate(31.090666 24.949188)scale(0.18 -0.18)">
       <use transform="scale(0.996264)" xlink:href="#CMR17-49"/>
       <use transform="translate(45.690477 0)scale(0.996264)" xlink:href="#CMMI12-58"/>
       <use transform="translate(72.787654 0)scale(0.996264)" xlink:href="#CMR17-48"/>
      </g>
     </g>
    </g>
    <g id="text_12">
     <!-- $u(y)$ -->
     <defs>
      <path d="M 34.09375 5.78125 
C 35.40625 0.1875 40.203125 -1 42.59375 -1 
C 45.796875 -1 48.203125 1.09375 49.796875 4.484375 
C 51.5 8.078125 52.796875 13.953125 52.796875 14.265625 
C 52.796875 14.75 52.40625 15.15625 51.796875 15.15625 
C 50.90625 15.15625 50.796875 14.65625 50.40625 13.15625 
C 48.59375 6.28125 46.796875 1 42.796875 1 
C 39.796875 1 39.796875 4.28125 39.796875 5.578125 
C 39.796875 7.875 40.09375 8.875 41.09375 13.0625 
C 41.796875 15.75 42.5 18.453125 43.09375 21.234375 
L 47.203125 37.5 
C 47.90625 40 47.90625 40.1875 47.90625 40.484375 
C 47.90625 41.984375 46.703125 43 45.203125 43 
C 42.296875 43 41.59375 40.484375 41 38 
C 40 34.109375 34.59375 12.65625 33.90625 9.171875 
C 33.796875 9.171875 29.90625 1 22.59375 1 
C 17.40625 1 16.40625 5.484375 16.40625 9.171875 
C 16.40625 14.859375 19.203125 22.84375 21.796875 29.53125 
C 23 32.71875 23.5 34.015625 23.5 36.015625 
C 23.5 40.296875 20.40625 44 15.59375 44 
C 6.40625 44 2.703125 29.53125 2.703125 28.71875 
C 2.703125 28.328125 3.09375 27.828125 3.796875 27.828125 
C 4.703125 27.828125 4.796875 28.234375 5.203125 29.625 
C 7.59375 38.203125 11.5 41.984375 15.296875 41.984375 
C 16.296875 41.984375 17.90625 41.890625 17.90625 38.703125 
C 17.90625 36.109375 16.796875 33.21875 15.296875 29.421875 
C 10.90625 17.546875 10.40625 13.765625 10.40625 10.765625 
C 10.40625 0.59375 18.09375 -1 22.203125 -1 
C 28.59375 -1 32.09375 3.390625 34.09375 5.78125 
z
" id="CMMI12-117"/>
      <path d="M 30.59375 -24.40625 
C 30.59375 -24.3125 30.59375 -24.109375 30.296875 -23.8125 
C 25.703125 -19.109375 13.40625 -6.296875 13.40625 24.9375 
C 13.40625 56.171875 25.5 68.875 30.40625 73.890625 
C 30.40625 73.984375 30.59375 74.1875 30.59375 74.484375 
C 30.59375 74.796875 30.296875 75 29.90625 75 
C 28.796875 75 20.296875 67.578125 15.40625 56.5625 
C 10.40625 45.453125 9 34.65625 9 25.046875 
C 9 17.828125 9.703125 5.625 15.703125 -7.296875 
C 20.5 -17.703125 28.703125 -25 29.90625 -25 
C 30.40625 -25 30.59375 -24.8125 30.59375 -24.40625 
z
" id="CMR17-40"/>
      <path d="M 26.296875 24.9375 
C 26.296875 32.140625 25.59375 44.359375 19.59375 57.265625 
C 14.796875 67.6875 6.59375 75 5.40625 75 
C 5.09375 75 4.703125 74.890625 4.703125 74.390625 
C 4.703125 74.1875 4.796875 74.09375 4.90625 73.890625 
C 9.703125 68.875 21.90625 56.171875 21.90625 25.046875 
C 21.90625 -6.1875 9.796875 -18.90625 4.90625 -23.90625 
C 4.796875 -24.109375 4.703125 -24.203125 4.703125 -24.40625 
C 4.703125 -24.90625 5.09375 -25 5.40625 -25 
C 6.5 -25 15 -17.609375 19.90625 -6.59375 
C 24.90625 4.515625 26.296875 15.328125 26.296875 24.9375 
z
" id="CMR17-41"/>
     </defs>
     <g transform="translate(22.126022 137.142055)rotate(-90)scale(0.2 -0.2)">
      <use transform="scale(0.996264)" xlink:href="#CMMI12-117"/>
      <use transform="translate(55.52033 0)scale(0.996264)" xlink:href="#CMR17-40"/>
      <use transform="translate(90.801097 0)scale(0.996264)" xlink:href="#CMMI12-121"/>
      <use transform="translate(141.939878 0)scale(0.996264)" xlink:href="#CMR17-41"/>
     </g>
    </g>
   </g>
   <g id="line2d_11">
    <path clip-path="url(#p71c61c62be)" d="M 378.998548 218.256364 
L 376.787324 217.874471 
L 371.305648 216.891272 
L 362.672354 215.229181 
L 351.074355 212.755189 
L 336.762505 209.264999 
L 320.046845 204.467657 
L 301.288934 197.976231 
L 280.895108 189.326202 
L 259.306659 178.060105 
L 236.991041 163.908147 
L 214.431194 147.024746 
L 192.115576 128.128345 
L 170.527128 108.382258 
L 150.133301 89.065171 
L 131.37539 71.251221 
L 114.65973 55.664392 
L 100.34788 42.700685 
L 88.749881 32.52258 
L 80.116587 25.159048 
L 74.634911 20.583636 
" style="fill:none;stroke:#000000;stroke-linecap:square;stroke-width:2;"/>
   </g>
   <g id="line2d_12">
    <defs>
     <path d="M 0 5.5 
C 1.458617 5.5 2.857689 4.920485 3.889087 3.889087 
C 4.920485 2.857689 5.5 1.458617 5.5 0 
C 5.5 -1.458617 4.920485 -2.857689 3.889087 -3.889087 
C 2.857689 -4.920485 1.458617 -5.5 0 -5.5 
C -1.458617 -5.5 -2.857689 -4.920485 -3.889087 -3.889087 
C -4.920485 -2.857689 -5.5 -1.458617 -5.5 0 
C -5.5 1.458617 -4.920485 2.857689 -3.889087 3.889087 
C -2.857689 4.920485 -1.458617 5.5 0 5.5 
z
" id="maa33c61084" style="stroke:#000000;stroke-width:2;"/>
    </defs>
    <g clip-path="url(#p71c61c62be)">
     <use style="stroke:#000000;stroke-width:2;" x="378.998548" xlink:href="#maa33c61084" y="218.256364"/>
     <use style="stroke:#000000;stroke-width:2;" x="376.787324" xlink:href="#maa33c61084" y="217.874471"/>
     <use style="stroke:#000000;stroke-width:2;" x="371.305648" xlink:href="#maa33c61084" y="216.891272"/>
     <use style="stroke:#000000;stroke-width:2;" x="362.672354" xlink:href="#maa33c61084" y="215.229181"/>
     <use style="stroke:#000000;stroke-width:2;" x="351.074355" xlink:href="#maa33c61084" y="212.755189"/>
     <use style="stroke:#000000;stroke-width:2;" x="336.762505" xlink:href="#maa33c61084" y="209.264999"/>
     <use style="stroke:#000000;stroke-width:2;" x="320.046845" xlink:href="#maa33c61084" y="204.467657"/>
     <use style="stroke:#000000;stroke-width:2;" x="301.288934" xlink:href="#maa33c61084" y="197.976231"/>
     <use style="stroke:#000000;stroke-width:2;" x="280.895108" xlink:href="#maa33c61084" y="189.326202"/>
     <use style="stroke:#000000;stroke-width:2;" x="259.306659" xlink:href="#maa33c61084" y="178.060105"/>
     <use style="stroke:#000000;stroke-width:2;" x="236.991041" xlink:href="#maa33c61084" y="163.908147"/>
     <use style="stroke:#000000;stroke-width:2;" x="214.431194" xlink:href="#maa33c61084" y="147.024746"/>
     <use style="stroke:#000000;stroke-width:2;" x="192.115576" xlink:href="#maa33c61084" y="128.128345"/>
     <use style="stroke:#000000;stroke-width:2;" x="170.527128" xlink:href="#maa33c61084" y="108.382258"/>
     <use style="stroke:#000000;stroke-width:2;" x="150.133301" xlink:href="#maa33c61084" y="89.065171"/>
     <use style="stroke:#000000;stroke-width:2;" x="131.37539" xlink:href="#maa33c61084" y="71.251221"/>
     <use style="stroke:#000000;stroke-width:2;" x="114.65973" xlink:href="#maa33c61084" y="55.664392"/>
     <use style="stroke:#000000;stroke-width:2;" x="100.34788" xlink:href="#maa33c61084" y="42.700685"/>
     <use style="stroke:#000000;stroke-width:2;" x="88.749881" xlink:href="#maa33c61084" y="32.52258"/>
     <use style="stroke:#000000;stroke-width:2;" x="80.116587" xlink:href="#maa33c61084" y="25.159048"/>
     <use style="stroke:#000000;stroke-width:2;" x="74.634911" xlink:href="#maa33c61084" y="20.583636"/>
    </g>
   </g>
   <g id="patch_3">
    <path d="M 59.416729 228.14 
L 59.416729 10.7 
" style="fill:none;stroke:#000000;stroke-linecap:square;stroke-linejoin:miter;stroke-width:0.8;"/>
   </g>
   <g id="patch_4">
    <path d="M 394.216729 228.14 
L 394.216729 10.7 
" style="fill:none;stroke:#000000;stroke-linecap:square;stroke-linejoin:miter;stroke-width:0.8;"/>
   </g>
   <g id="patch_5">
    <path d="M 59.416729 228.14 
L 394.216729 228.14 
" style="fill:none;stroke:#000000;stroke-linecap:square;stroke-linejoin:miter;stroke-width:0.8;"/>
   </g>
   <g id="patch_6">
    <path d="M 59.416729 10.7 
L 394.216729 10.7 
" style="fill:none;stroke:#000000;stroke-linecap:square;stroke-linejoin:miter;stroke-width:0.8;"/>
   </g>
   <g id="legend_1">
    <g id="patch_7">
     <path d="M 239.160901 82.451267 
L 380.216729 82.451267 
Q 384.216729 82.451267 384.216729 78.451267 
L 384.216729 24.7 
Q 384.216729 20.7 380.216729 20.7 
L 239.160901 20.7 
Q 235.160901 20.7 235.160901 24.7 
L 235.160901 78.451267 
Q 235.160901 82.451267 239.160901 82.451267 
z
" style="fill:#ffffff;opacity:0.8;stroke:#cccccc;stroke-linejoin:miter;"/>
    </g>
    <g id="line2d_13">
     <path d="M 243.160901 35.7 
L 283.160901 35.7 
" style="fill:none;stroke:#000000;stroke-linecap:square;stroke-width:2;"/>
    </g>
    <g id="line2d_14"/>
    <g id="text_13">
     <!-- Analytical -->
     <defs>
      <path d="M 35.5 69 
L 26.90625 69 
L 2.59375 0 
L 10.203125 0 
L 17.203125 20 
L 44 20 
L 51.09375 0 
L 59.796875 0 
z
M 42.09375 25.59375 
L 19.09375 25.59375 
C 23.90625 39.53125 29.90625 56.84375 30.59375 61.3125 
L 30.703125 61.3125 
C 31.40625 57.234375 33.40625 51.265625 35.09375 46.1875 
z
" id="CMSS17-65"/>
      <path d="M 40.90625 29.34375 
C 40.90625 35.671875 39.40625 44 28.09375 44 
C 21.703125 44 17.5 40.6875 14.703125 37.28125 
L 14.703125 43.484375 
L 7.40625 43.484375 
L 7.40625 0 
L 15 0 
L 15 24.3125 
C 15 30.65625 17.40625 37.890625 24.203125 37.890625 
C 33 37.890625 33.296875 31.953125 33.296875 28.53125 
L 33.296875 0 
L 40.90625 0 
z
" id="CMSS17-110"/>
      <path d="M 37.59375 27.953125 
C 37.59375 37.484375 30.90625 44 21.90625 44 
C 17.5 44 12.703125 43.1875 7.203125 39.984375 
L 7.796875 33.328125 
C 10.296875 35.15625 14.59375 38.09375 21.796875 38.09375 
C 26.90625 38.09375 30 34.140625 30 27.84375 
L 30 24 
C 14 23.5 4 18.890625 4 11.109375 
C 4 7.0625 6.5 -1 14.796875 -1 
C 16.296875 -1 24.40625 -0.8125 30.203125 3.5 
L 30.203125 -0.203125 
L 37.59375 -0.203125 
z
M 30 12.875 
C 30 11.109375 30 8.734375 27 6.96875 
C 24.40625 5.296875 21.09375 5.09375 19.703125 5.09375 
C 14.703125 5.09375 11.296875 7.859375 11.296875 11.296875 
C 11.296875 18.203125 26.90625 18.890625 30 19 
z
" id="CMSS17-97"/>
      <path d="M 14.796875 69 
L 7.40625 69 
L 7.40625 0 
L 14.796875 0 
z
" id="CMSS17-108"/>
      <path d="M 41.796875 43 
L 34 43 
C 25.5 20.203125 22.59375 10.953125 22.40625 5.984375 
L 22.296875 5.984375 
C 22 10.859375 17.59375 22.796875 14.09375 31.34375 
L 9.40625 43 
L 1.296875 43 
L 19 0.21875 
C 17.90625 -2.765625 16.296875 -7.25 15.796875 -8.234375 
C 13.59375 -13.8125 12.09375 -13.8125 10.5 -13.8125 
C 10.09375 -13.8125 6.90625 -13.703125 3.296875 -12.609375 
L 3.90625 -19.203125 
C 6.40625 -19.703125 8.90625 -20 10.703125 -20 
C 13.203125 -20 18.203125 -20 22.796875 -7.734375 
z
" id="CMSS17-121"/>
      <path d="M 16.703125 37.1875 
L 29.703125 37.1875 
L 29.703125 43 
L 16.703125 43 
L 16.703125 55 
L 9.59375 55 
L 9.59375 43 
L 1.703125 43 
L 1.703125 37.1875 
L 9.40625 37.1875 
L 9.40625 11.734375 
C 9.40625 6 10.703125 -1 17.296875 -1 
C 22.296875 -1 26.90625 0.390625 31.296875 2.6875 
L 29.703125 8.609375 
C 27.296875 6.5 24.40625 5.296875 21.296875 5.296875 
C 16.90625 5.296875 16.703125 10.921875 16.703125 13.4375 
z
" id="CMSS17-116"/>
      <path d="M 15.296875 66 
L 6.90625 66 
L 6.90625 57.59375 
L 15.296875 57.59375 
z
M 14.796875 43 
L 7.40625 43 
L 7.40625 0 
L 14.796875 0 
z
" id="CMSS17-105"/>
      <path d="M 38.5 39.6875 
C 38.5 40.390625 33.90625 42.390625 32.703125 42.796875 
C 29.40625 44 25.203125 44 24.09375 44 
C 11.09375 44 3.296875 32.6875 3.296875 21.296875 
C 3.296875 9.296875 12 -1 23.703125 -1 
C 30.40625 -1 35.203125 1.1875 39.09375 3.796875 
L 38.5 10.390625 
C 34.203125 7.09375 29.203125 5.296875 23.796875 5.296875 
C 16 5.296875 10.90625 12.09375 10.90625 21.390625 
C 10.90625 28.59375 14.203125 37.6875 24.203125 37.6875 
C 29.703125 37.6875 32.796875 36.59375 37.40625 33.484375 
z
" id="CMSS17-99"/>
     </defs>
     <g transform="translate(299.160901 42.7)scale(0.2 -0.2)">
      <use transform="scale(0.996264)" xlink:href="#CMSS17-65"/>
      <use transform="translate(62.217855 0)scale(0.996264)" xlink:href="#CMSS17-110"/>
      <use transform="translate(110.422798 0)scale(0.996264)" xlink:href="#CMSS17-97"/>
      <use transform="translate(155.344719 0)scale(0.996264)" xlink:href="#CMSS17-108"/>
      <use transform="translate(177.525442 0)scale(0.996264)" xlink:href="#CMSS17-121"/>
      <use transform="translate(220.525583 0)scale(0.996264)" xlink:href="#CMSS17-116"/>
      <use transform="translate(254.35715 0)scale(0.996264)" xlink:href="#CMSS17-105"/>
      <use transform="translate(276.537873 0)scale(0.996264)" xlink:href="#CMSS17-99"/>
      <use transform="translate(318.176695 0)scale(0.996264)" xlink:href="#CMSS17-97"/>
      <use transform="translate(363.098616 0)scale(0.996264)" xlink:href="#CMSS17-108"/>
     </g>
    </g>
    <g id="line2d_15"/>
    <g id="line2d_16">
     <g>
      <use style="stroke:#000000;stroke-width:2;" x="263.160901" xlink:href="#maa33c61084" y="63.575634"/>
     </g>
    </g>
    <g id="text_14">
     <!-- SISC++ -->
     <defs>
      <path d="M 43.703125 66.09375 
C 39.296875 68.6875 34.5 71 26.40625 71 
C 13.5 71 5.203125 61.46875 5.203125 51.703125 
C 5.203125 47.875 6.296875 43.546875 10.203125 39.125 
C 14.09375 34.6875 18.5 33.484375 24.09375 32.078125 
C 26.40625 31.46875 30.296875 30.359375 31 30.0625 
C 36.59375 27.84375 39.296875 22.71875 39.296875 17.875 
C 39.296875 11.53125 34.40625 4.796875 25.703125 4.796875 
C 22.703125 4.796875 13.90625 5.296875 5.59375 12.953125 
L 4.203125 5 
C 12.40625 -1 21.296875 -2 25.796875 -2 
C 38.09375 -2 46.90625 7.71875 46.90625 18.78125 
C 46.90625 22.8125 45.703125 27.953125 41.5 32.6875 
C 37.40625 37.203125 33.796875 38.21875 25.59375 40.4375 
C 20.90625 41.640625 17.90625 42.453125 15.40625 45.5625 
C 13.703125 47.78125 12.796875 49.890625 12.796875 52.609375 
C 12.796875 58.25 17.59375 64.390625 26.40625 64.390625 
C 30.796875 64.390625 36.5 63.484375 42.296875 58.046875 
z
" id="CMSS17-83"/>
      <path d="M 17.09375 69 
L 8.703125 69 
L 8.703125 0 
L 17.09375 0 
z
" id="CMSS17-73"/>
      <path d="M 54.703125 11.015625 
C 48 6.5 44.90625 5.1875 36.796875 5.1875 
C 22.796875 5.1875 14.59375 20.375 14.59375 34.234375 
C 14.59375 49.015625 23 63.59375 37.203125 63.59375 
C 43.59375 63.59375 47.796875 61.78125 52.90625 58.5625 
L 54.296875 66.484375 
C 49.5 68.890625 43.40625 70 37.296875 70 
C 18.09375 70 6.203125 52.234375 6.203125 34.234375 
C 6.203125 14.4375 20.296875 -1.203125 36.296875 -1.203125 
C 44.90625 -1.203125 47.90625 -0.5 55.296875 4.1875 
z
" id="CMSS17-67"/>
      <path d="M 38.296875 23 
L 64.703125 23 
C 66.09375 23 67.796875 23 67.796875 24.6875 
C 67.796875 26.5 66.203125 26.5 64.703125 26.5 
L 38.296875 26.5 
L 38.296875 52.890625 
C 38.296875 54.296875 38.296875 56 36.59375 56 
C 34.796875 56 34.796875 54.390625 34.796875 52.890625 
L 34.796875 26.5 
L 8.296875 26.5 
C 6.90625 26.5 5.203125 26.5 5.203125 24.796875 
C 5.203125 23 6.796875 23 8.296875 23 
L 34.796875 23 
L 34.796875 -3.03125 
C 34.796875 -4.40625 34.796875 -6.109375 36.5 -6.109375 
C 38.296875 -6.109375 38.296875 -4.515625 38.296875 -3.03125 
z
" id="CMSS17-43"/>
     </defs>
     <g transform="translate(299.160901 70.575634)scale(0.2 -0.2)">
      <use transform="scale(0.996264)" xlink:href="#CMSS17-83"/>
      <use transform="translate(52.048516 0)scale(0.996264)" xlink:href="#CMSS17-73"/>
      <use transform="translate(77.832442 0)scale(0.996264)" xlink:href="#CMSS17-83"/>
      <use transform="translate(129.880958 0)scale(0.996264)" xlink:href="#CMSS17-67"/>
      <use transform="translate(189.736729 0)scale(0.996264)" xlink:href="#CMSS17-43"/>
      <use transform="translate(262.604664 0)scale(0.996264)" xlink:href="#CMSS17-43"/>
     </g>
    </g>
   </g>
  </g>
 </g>
 <defs>
  <clipPath id="p71c61c62be">
   <rect height="217.44" width="334.8" x="59.416729" y="10.7"/>
  </clipPath>
 </defs>
</svg>
